<svg xmlns="http://www.w3.org/2000/svg" viewBox="0 0 512 512">
  <rect width="512" height="512" rx="80" fill="#1a1a2e"/>
  <rect x="80" y="100" width="240" height="310" rx="18" fill="#2d7d6f"/>
  <rect x="90" y="110" width="220" height="290" rx="14" fill="#fffdf7"/>
  <rect x="110" y="145" width="180" height="14" rx="7" fill="#1a1a2e" opacity=".7"/>
  <rect x="110" y="175" width="140" height="10" rx="5" fill="#d4cfc4"/>
  <rect x="110" y="195" width="160" height="10" rx="5" fill="#d4cfc4"/>
  <rect x="110" y="215" width="130" height="10" rx="5" fill="#d4cfc4"/>
  <rect x="110" y="245" width="180" height="10" rx="5" fill="#d4cfc4"/>
  <rect x="110" y="265" width="150" height="10" rx="5" fill="#d4cfc4"/>
  <rect x="110" y="285" width="170" height="10" rx="5" fill="#d4cfc4"/>
  <rect x="320" y="130" width="110" height="145" rx="12" fill="#e8a838"/>
  <rect x="330" y="143" width="90" height="119" rx="8" fill="#fffdf7"/>
  <rect x="340" y="163" width="70" height="8" rx="4" fill="#1a1a2e" opacity=".6"/>
  <rect x="340" y="181" width="55" height="6" rx="3" fill="#d4cfc4"/>
  <rect x="340" y="196" width="60" height="6" rx="3" fill="#d4cfc4"/>
  <rect x="340" y="211" width="50" height="6" rx="3" fill="#d4cfc4"/>
  <circle cx="375" cy="330" r="70" fill="#c84b31"/>
  <text x="375" y="352" font-size="72" text-anchor="middle" fill="white" font-family="Arial" font-weight="900">★</text>
</svg>
